<?xml version="1.0" encoding="iso-8859-1"?>
<!-- Uploaded to: SVG Repo, www.svgrepo.com, Generator: SVG Repo Mixer Tools -->
<svg version="1.1" id="Layer_1" xmlns="http://www.w3.org/2000/svg" xmlns:xlink="http://www.w3.org/1999/xlink" 
	 viewBox="0 0 392.598 392.598" xml:space="preserve">
<path style="fill:#FFFFFF;" d="M299.96,51.717L76.477,152.76v87.079L299.96,340.816c7.176,3.232,15.386-2.004,15.386-9.956V61.673
	C315.41,53.721,307.2,48.42,299.96,51.717z"/>
<polygon style="fill:#FFC10D;" points="98.263,225.681 98.263,166.853 293.56,78.61 293.56,313.923 "/>
<g>
	<rect x="21.851" y="156.638" style="fill:#56ACE0;" width="32.84" height="79.386"/>
	<path style="fill:#56ACE0;" d="M337.196,154.44v83.523c19.135-4.267,33.616-21.333,33.616-41.826S356.331,158.707,337.196,154.44z"
		/>
</g>
<path style="fill:#194F82;" d="M180.945,310.95l110.093,49.778c21.657,9.826,46.158-6.012,46.158-29.737v-70.788
	c31.289-4.461,55.402-31.354,55.402-63.935s-24.113-59.41-55.402-63.935V61.608c0-23.725-24.501-39.564-46.158-29.737L63.16,134.788
	H10.925C4.913,134.788,0,139.636,0,145.713v101.172c0,6.012,4.848,10.925,10.925,10.925h49.778
	c-4.202,33.228,16.485,65.422,49.584,74.731C136.145,339.2,162.974,332.024,180.945,310.95z M21.851,156.638h32.84v79.386h-32.84
	V156.638z M116.17,311.467c-20.687-5.818-34.263-24.76-34.263-45.253l77.834,35.168C148.04,311.661,131.556,315.798,116.17,311.467z
	 M299.96,340.816L76.477,239.774V152.76L299.96,51.717c7.176-3.232,15.386,2.004,15.386,9.956v41.956h-26.053
	c-6.012,0-10.925,4.848-10.925,10.925c0,6.012,4.848,10.925,10.925,10.925h26.053v21.786h-47.838
	c-6.012,0-10.925,4.848-10.925,10.925c0,6.012,4.848,10.925,10.925,10.925h47.838V330.99
	C315.41,338.812,307.2,344.113,299.96,340.816z M337.196,238.093V154.44c19.135,4.267,33.616,21.333,33.616,41.826
	S356.331,233.826,337.196,238.093z"/>
</svg>